# xmcd
#
# Track frame offsets:
#	150
#	23468
#	55550
#	78041
#	102263
#	123396
#	144420
#	164781
#	187551
#
# Disc length: 2754 seconds
#
# Revision: 0
# Processed by: cddbd v1.5.2PL0 Copyright (c) Steve Scherf et al.
# Submitted via: audiograbber 1.83.01
#
DISCID=600ac009
DTITLE=Peter Vannuis - Peter Vannuis
DYEAR=1900
DGENRE=
TTITLE0=Cabin Fever
TTITLE1=Chance To Dance (For Jordan)
TTITLE2=Exactly How He Feels
TTITLE3=Flowers At The Side Of The Road
TTITLE4=I Wish
TTITLE5=Little Linda
TTITLE6=More Than Senses Can Feel
TTITLE7=Only The Chosen (For Firefighters)
TTITLE8=Someday
EXTD=
EXTT0=
EXTT1=
EXTT2=
EXTT3=
EXTT4=
EXTT5=
EXTT6=
EXTT7=
EXTT8=
PLAYORDER=
